<?xml version="1.0" encoding="UTF-8" standalone="no"?>
<svg
   xmlns:dc="http://purl.org/dc/elements/1.1/"
   xmlns:cc="http://creativecommons.org/ns#"
   xmlns:rdf="http://www.w3.org/1999/02/22-rdf-syntax-ns#"
   xmlns:svg="http://www.w3.org/2000/svg"
   xmlns="http://www.w3.org/2000/svg"
   xmlns:sodipodi="http://sodipodi.sourceforge.net/DTD/sodipodi-0.dtd"
   xmlns:inkscape="http://www.inkscape.org/namespaces/inkscape"
   height="64"
   viewBox="0 0 64 64"
   width="64"
   id="svg2"
   version="1.1"
   inkscape:version="0.91 r13725"
   sodipodi:docname="mail2me2.svg"
   style="fill:#ffffff">
  <metadata
     id="metadata12">
    <rdf:RDF>
      <cc:Work
         rdf:about="">
        <dc:format>image/svg+xml</dc:format>
        <dc:type
           rdf:resource="http://purl.org/dc/dcmitype/StillImage" />
        <dc:title />
      </cc:Work>
    </rdf:RDF>
  </metadata>
  <defs
     id="defs10" />
  <sodipodi:namedview
     pagecolor="#48008a"
     bordercolor="#666666"
     borderopacity="1"
     objecttolerance="10"
     gridtolerance="10"
     guidetolerance="10"
     inkscape:pageopacity="0"
     inkscape:pageshadow="2"
     inkscape:window-width="1771"
     inkscape:window-height="925"
     id="namedview8"
     showgrid="false"
     inkscape:zoom="9.8333333"
     inkscape:cx="26.652139"
     inkscape:cy="34.703173"
     inkscape:window-x="0"
     inkscape:window-y="30"
     inkscape:window-maximized="0"
     inkscape:current-layer="svg2" />
  <path
     d="m 0,40 24,0 0,24 -24,0 z"
     id="path4"
     inkscape:connector-curvature="0"
     style="fill:none" />
  <path
     d="m 20.61017,2.4067796 -16.0000006,0 c -1.1,0 -1.99,0.9 -1.99,2 l -0.01,12.0000004 c 0,1.1 0.9,2 2,2 l 16.0000006,0 c 1.1,0 2,-0.9 2,-2 l 0,-12.0000004 c 0,-1.1 -0.9,-2 -2,-2 z m 0,14.0000004 -16.0000006,0 0,-10.0000004 8.0000006,5.0000004 8,-5.0000004 0,10.0000004 z m -8,-7.0000005 -8.0000006,-4.9999999 16.0000006,0 -8,4.9999999 z"
     id="path6"
     inkscape:connector-curvature="0" />
  <path
     inkscape:connector-curvature="0"
     d="m 41.898305,6.9584749 c 2.841017,0 5.14322,2.302204 5.14322,5.1432211 0,2.841017 -2.302203,5.14322 -5.14322,5.14322 -2.841017,0 -5.14322,-2.302203 -5.14322,-5.14322 0,-2.8410171 2.302203,-5.1432211 5.14322,-5.1432211 m 0,22.0423731 c 7.273983,0 14.939831,3.575763 14.939831,5.143221 l 0,2.694068 -29.879662,0 0,-2.694068 c 0,-1.567458 7.665848,-5.143221 14.939831,-5.143221 m 0,-26.6957621 c -5.412627,0 -9.79661,4.383983 -9.79661,9.7966101 0,5.412627 4.383983,9.79661 9.79661,9.79661 5.412627,0 9.79661,-4.383983 9.79661,-9.79661 0,-5.4126271 -4.383983,-9.7966101 -9.79661,-9.7966101 z m 0,22.0423731 c -6.539237,0 -19.59322,3.281864 -19.59322,9.79661 l 0,7.347457 39.18644,0 0,-7.347457 c 0,-6.514746 -13.053983,-9.79661 -19.59322,-9.79661 z"
     id="path4-3" />
  <path
     inkscape:connector-curvature="0"
     d="m 15.118644,31.194916 0,4 7,-7 -7,-7 0,4.1 c -5,0 -8.5000003,-1.6 -11.0000003,-5.1 1,5 4.0000001,10 11.0000003,11 z"
     id="path4-7" />
  <g
     id="g4209"
     transform="matrix(1.2564283,0,0,1.2564283,-9.3363875,-8.5498984)">
    <text
       sodipodi:linespacing="125%"
       id="text4174"
       y="54.166489"
       x="10.576271"
       style="font-style:normal;font-weight:normal;font-size:40px;line-height:125%;font-family:Sans;letter-spacing:0px;word-spacing:0px;fill:#00ff00;fill-opacity:1;stroke:none;stroke-width:1px;stroke-linecap:butt;stroke-linejoin:miter;stroke-opacity:1"
       xml:space="preserve"><tspan
         style="font-style:normal;font-variant:normal;font-weight:normal;font-stretch:normal;font-size:10px;line-height:125%;font-family:Sans;-inkscape-font-specification:'Sans, Normal';text-align:start;writing-mode:lr-tb;text-anchor:start;fill:#00ff00;fill-opacity:1"
         y="54.166489"
         x="10.576271"
         id="tspan4176"
         sodipodi:role="line">mail</tspan></text>
    <text
       xml:space="preserve"
       style="font-style:normal;font-weight:normal;font-size:40px;line-height:125%;font-family:Sans;letter-spacing:0px;word-spacing:0px;fill:#00ff00;fill-opacity:1;stroke:none;stroke-width:1px;stroke-linecap:butt;stroke-linejoin:miter;stroke-opacity:1"
       x="38.94915"
       y="54.237289"
       id="text4178"
       sodipodi:linespacing="125%"><tspan
         y="54.237289"
         x="38.94915"
         style="font-style:normal;font-variant:normal;font-weight:normal;font-stretch:normal;font-size:10px;line-height:125%;font-family:Sans;-inkscape-font-specification:'Sans, Normal';text-align:start;writing-mode:lr-tb;text-anchor:start;fill:#00ff00;fill-opacity:1"
         id="tspan4182"
         sodipodi:role="line">me</tspan></text>
    <text
       sodipodi:linespacing="125%"
       id="text4184"
       y="54.237289"
       x="31.273941"
       style="font-style:normal;font-weight:normal;font-size:40px;line-height:125%;font-family:Sans;letter-spacing:0px;word-spacing:0px;fill:#ff6600;fill-opacity:1;stroke:none;stroke-width:1px;stroke-linecap:butt;stroke-linejoin:miter;stroke-opacity:1"
       xml:space="preserve"><tspan
         y="54.237289"
         x="31.273941"
         style="font-style:normal;font-variant:normal;font-weight:normal;font-stretch:normal;font-size:13.75px;line-height:125%;font-family:Sans;-inkscape-font-specification:'Sans, Normal';text-align:start;writing-mode:lr-tb;text-anchor:start;fill:#ff6600;fill-opacity:1"
         id="tspan4188"
         sodipodi:role="line">2</tspan></text>
  </g>
</svg>
